<svg version="1.1" id="Layer_1" xmlns="http://www.w3.org/2000/svg" xmlns:xlink="http://www.w3.org/1999/xlink" x="0px" y="0px"
	 viewBox="0 0 1075.9 305.9" style="enable-background:new 0 0 1075.9 305.9;" xml:space="preserve">
<style type="text/css">
	.st0{fill:#FFFFFF;}
</style>
<g>
	<path class="st0" d="M267.3,63.5L267.3,63.5l0-4.8l-50,0.2l0,4.8c10,0,18.3,2.3,18.4,11.7c0,2.7-0.6,5.5-1.7,8.6l-35.8,102.3
		l-35.7-91.9c-2.9-7.5-4.4-13.3-4.4-17.4c0-8.5,4.9-12.2,17.2-13.1l0-4.8L21.8,59.7l0,4.8c10.2,0.3,14.4,2,17.9,7.4
		c3.5,5.8,6.8,15.5,61.9,164l4.3,0l39.6-110l42.8,109.6l4.8,0L242,95.1c4.3-12.1,8.2-20.3,11.7-24.8C257.2,66,261.7,63.6,267.3,63.5
		z M111.9,186.7L111.9,186.7c-20-54.5-29.8-81.6-34.7-95.6c-8.1-23.6-2.4-26.9,25.1-27c16-0.1,19.7,2.6,25.9,16.7
		c2.6,6.3,6.2,15.2,11.4,28.8L111.9,186.7z"/>
	<path class="st0" d="M281.7,87.2c7.3,0,13-5.8,13-12.8c0-7.3-5.8-13.1-13.1-13.1c-7,0-12.9,6-12.9,13.2
		C268.8,81.5,274.7,87.2,281.7,87.2z"/>
	<path class="st0" d="M488.4,226.1c-4.8-0.3-8.4-1.2-10.8-2.7c-4.9-2.8-6.8-8.5-6.8-20.6l-0.4-91.7l-39,13.6l1.2,4.5
		c2-0.9,3.8-1.4,5.5-1.4c3.2,0,5.7,0.6,7.5,1.8c3.6,2.4,5.2,7.6,5.2,17.6l0.2,55.7c0,6-0.6,10.7-1.7,14c-2.3,6.4-7.2,9.1-15.9,9.4
		c-2.7-0.1-5-0.5-7-1.1c-8.5-2.8-15-8.9-27.8-25.3l-31.6-40.7l24.7-23.7c8.9-8.8,15.4-13,22.9-15c4.4-1.1,8-1.6,15.4-2l0-4.3
		l-51.6,0.2l0,4.3c6.3,0,9.4,1.8,9.4,5.5c0,2.1-1.3,4.6-4,7.3L348,165.9l-0.5-115.1l-40.3,13.9l1.6,4.3c2.9-1,5.4-1.5,7.2-1.5
		c6.8,0,10.3,5.1,10.4,18.3l0.3,7.4l0.5,110.3c0,5.9-0.4,10.5-1.4,13.8c-2.1,6.5-6.6,9.2-15.3,9.7h0l0,0c-4.8-0.3-8.4-1.2-10.8-2.7
		c-4.9-2.8-6.8-8.5-6.8-20.6l-0.4-91.7l-39,13.6l1.2,4.5c2-0.9,3.8-1.4,5.5-1.4c3.2,0,5.7,0.6,7.5,1.8c3.6,2.4,5.2,7.6,5.2,17.6
		l0.2,55.7c0,6-0.6,10.7-1.7,14c-2.4,6.8-7.7,9.4-17.4,9.4l-0.2,0l0,4.5l54.1-0.2v0l59.5-0.3l0-4.5l-2.3,0c-4.9-0.1-8.6-1.1-11-2.9
		c-4.9-3.7-5.9-9.6-6-20.4l-0.2-36.9l0.5,0.6l35.2,46c0.4,0.6,1,1.3,1.7,2.3c1.5,2,2.6,3.6,2.6,5.9c0,3.3-2.7,5.1-8.1,5.3l0,4.5
		l55.9-0.2v0l52.5-0.2L488.4,226.1L488.4,226.1z"/>
	<path class="st0" d="M459.7,86.5c7.3,0,13-5.8,13-12.8c0-7.3-5.8-13.1-13.1-13.1c-7,0-12.9,6-12.9,13.2
		C446.8,80.7,452.7,86.5,459.7,86.5z"/>
	<path class="st0" d="M590.2,145.7L590.2,145.7c-6-4.6-17.5-11.9-34.3-21.5c-9.4-5.5-15.5-9.3-18.4-11.5
		c-10.2-7-15.4-14.8-15.5-23.4c0-4.7,1.3-9,4-12.9c5.4-7.8,14.9-12.6,26.1-12.7c7.5,0,14.5,2,21.3,6.1c13.3,8.3,23,23.5,25,41.1
		l4.4,0l-0.2-57.2l-4.4,0c-2.1,6-5.5,9.1-10,9.1c-2.2,0-5-0.6-8.4-1.9c-15.9-6.2-21.1-7.3-31-7.2c-9.1,0-17.3,2-24.8,5.9
		c-14.8,7.9-24.1,22.6-24.1,39.2c0,11.3,4.3,21,10.7,28.5c5.9,6.9,15.2,13.2,35,24.4c11,6.2,19.6,11.6,25.9,16.4
		c12.3,9.5,17.4,18.1,17.5,28.8c0,5.3-1.3,10.1-4.1,14.2c-5.5,8.3-16.2,13.1-29.6,13.2c-17.1,0.1-33.2-9.7-41.7-25.3
		c-4.3-7.7-5.3-10.7-7.8-22.6l-4.8,0l0.2,58.4l4.8,0c1.8-5.3,4.6-8.4,8.2-9.1l1.2-0.2c0.6-0.1,1.1-0.1,1.7-0.1
		c1.9,0.1,4.2,0.6,6.9,1.4c7.6,2.4,13,4.1,16.4,5c7,2.1,11.1,2.5,18.9,2.5c10.1,0,19.3-2.2,27.6-6.4c16.6-8.4,26.6-23.7,26.5-41.4
		C613.5,170,605.1,157,590.2,145.7z"/>
	<path class="st0" d="M839.4,140.2L839.4,140.2c-10.2-18-28.8-29-48.9-28.9c-10.6,0-20.5,3-29.7,8.9c-18.6,11.9-30.3,33.2-30.3,55.8
		c0,4.2,0.4,8.2,1.3,12.1c-14.3,19.9-27.5,27.6-43.4,27.7c-28.5,0.1-45.6-23.9-45.7-52.9c-0.1-23.5,8.2-44.5,32.8-44.6
		c10.9,0,18.8,3,18.9,11c0,1.8-0.6,3.9-0.3,6.8c0.9,8.6,6.8,12.5,12.7,12.5c7.1,0,12-4.8,12-13.1c-0.1-15.6-21.6-25.1-39-25
		c-33.8,0.1-57.3,24.3-57.1,62.9c0.1,34.3,20.7,60.4,53.1,60.3c21.7-0.1,41.1-12.2,57.6-40c1.3,4,2.9,7.8,5,11.5
		c10.2,18.1,28.8,29.5,48.4,29.4c15.4-0.1,31.1-7.4,42.3-19.6c11.3-12,18.1-29.1,18-45.4C847,159,844.5,149.1,839.4,140.2z
		 M820.4,203.4L820.4,203.4c-5.2,14-15.2,22.1-27.9,22.1c-7.3,0-13.9-2.5-19.8-7.8c-11.8-10.4-19.3-29.9-19.4-51.9
		c0-9.1,1.3-17.1,3.8-24c5.1-13.8,14.9-21.7,27.7-21.8c7.4,0,14,2.5,20.1,7.5c12,10.2,19.3,29.2,19.4,51.7
		C824.3,188.4,823,196.4,820.4,203.4z"/>
	<path class="st0" d="M920.5,111.3L920.5,111.3c-2.3-1.3-4.9-1.9-7.8-1.9c-11.3,0-31.4,23.7-31.4,23.7l-0.1-18.3l-4.8-5.3l-35,14.8
		l1.6,4.3c3.3-1.4,6-2.1,8.3-2.1c2.8,0,4.8,1,6.2,2.8c2.6,3.8,3.1,9.1,3.2,18.3l0.2,53.7c0,6.4-0.4,11.2-1.4,14.3
		c-2.1,6.4-7,9-16.9,9.2l-0.7,0l0,4.5l62-0.3l0-4.5l-3.8,0c-5-0.1-8.7-0.9-11.3-2.3c-5.1-2.8-7-8.6-7.1-21.2l-0.2-57.4
		c4.5-8.7,9.8-15,15-17.2c1.6-0.6,3.1-1,4.4-1c3.1,0,5.4,1.5,7,4.5c1.9,3.6,5.2,5.4,9,5.4c6.3,0,11.8-4.7,11.8-11.6
		C928.7,118.7,925.5,114.1,920.5,111.3z"/>
	<path class="st0" d="M1033.3,181.1L1033.3,181.1c-14.3,21.6-27.7,31.5-45.5,31.5c-25.4,0.1-44.7-24.9-44.8-52.5l0-4.1l79-0.3
		c0-9.2-1.9-17.4-5.6-24.6c-7.4-14.1-21.6-22.2-38.9-22.1c-10.2,0-19.2,2.7-26.9,7.9c-15.7,10.5-24.8,30.5-24.7,55.1
		c0.1,31.5,20.4,57.2,50.2,57.1c25.1-0.1,43.7-15.3,59.8-46L1033.3,181.1z M943.5,147.1L943.5,147.1c0.7-5.4,2-10.2,4.5-14.5
		c4.9-9.2,13-14.4,22.7-14.5c13.5-0.1,24.5,13.1,24.6,21.9c0,4.5-2.9,8-9.7,8l-42.2,0.2L943.5,147.1z"/>
</g>
</svg>