<?xml version="1.0" encoding="UTF-8"?>
<svg id="Layer_1" data-name="Layer 1" xmlns="http://www.w3.org/2000/svg" viewBox="0 0 1096.3636 334.054">
  <defs>
    <style>
      .cls-1 {
        fill: #8493a6;
      }
    </style>
  </defs>
  <g>
    <path class="cls-1" d="m150.8698,107.1887l-39.6113,109.951-4.3033.0184C51.8639,68.6371,48.5034,58.9399,45.0374,53.1766c-3.4649-5.394-7.6534-7.0972-17.8565-7.4229l-.0206-4.7953,153.4218-.6503.0206,4.7941c-12.2904.913-17.1901,4.6221-17.1546,13.1048.0184,4.1794,1.5162,9.9507,4.3755,17.4378l35.6728,91.9294,35.8322-102.3137c1.0942-3.0772,1.6974-5.9078,1.686-8.6123-.0401-9.4656-8.4104-11.7663-18.368-11.7239l-.0206-4.7953,50.0346-.2122.0206,4.7953c-5.5316.1457-10.07,2.5014-13.6174,6.8196-3.5463,4.4409-7.4447,12.693-11.6975,24.7598l-48.9473,140.4787-4.7941.0195-42.7551-109.6012Zm-5.847-16.3253c-5.2219-13.6243-8.8244-22.5841-11.4325-28.8417-6.206-14.1118-9.906-16.8001-25.8872-16.7325-27.5377.117-33.1794,3.4603-25.089,27.0296,4.8549,13.9936,14.6806,41.1218,34.7048,95.6202l27.704-77.0756Z"/>
    <path class="cls-1" d="m259.2187,208.3359l.2454-.0011c9.7122-.0413,14.9869-2.646,17.4172-9.4174,1.093-3.3238,1.6883-7.9986,1.6619-14.0211l-.2351-55.69c-.0424-9.9576-1.663-15.1142-5.238-17.5571-1.85-1.2215-4.3113-1.8259-7.5078-1.8121-1.7204.0069-3.5623.5058-5.5259,1.3752l-1.249-4.543,39.0356-13.5658.3888,91.7092c.0516,12.17,1.9188,17.8175,6.8494,20.624,2.4647,1.4646,6.0328,2.3099,10.8293,2.6586l.0195,4.5487-56.6718.2409-.0195-4.5487Zm27.8175-165.8372c7.2532-.0298,13.0554,5.8459,13.0864,13.099.0298,7.0066-5.7232,12.81-12.9763,12.8398-7.0066.0298-12.9316-5.7232-12.9614-12.7297-.031-7.2531,5.8447-13.1793,12.8513-13.2091Z"/>
    <path class="cls-1" d="m404.1957,181.0758c12.7332,16.4194,19.2741,22.5382,27.7682,25.3298,2.4624.8499,5.5374,1.2054,9.3486,1.1894l.0195,4.5487-55.9344.2374-.0195-4.5487c5.4077-.2695,8.1053-2.0014,8.0904-5.3206-.0092-2.3363-1.1228-3.9294-2.6058-5.8906-.7421-.9795-1.3603-1.7147-1.7319-2.3283l-35.2324-45.9515-.4943-.6125.1571,36.8805c.0459,10.8178,1.054,16.7141,5.9869,20.382,2.3443,1.8339,6.0363,2.8019,10.9543,2.904l2.3351-.0103.0195,4.5487-59.5002.2523-.0195-4.5487,2.5817-.0103c8.7269-.406,13.2642-3.13,15.3252-9.6548.9703-3.3226,1.4417-7.8736,1.4176-13.7746l-.4679-110.2722-.2764-7.3759c-.0562-13.1529-3.6426-18.3015-10.4049-18.2728-1.8443.008-4.2998.5104-7.2474,1.5059l-1.616-4.2964,40.2639-13.9397.4886,115.0675,35.8747-34.4513c2.693-2.7159,4.0349-5.1807,4.0257-7.2704-.0149-3.6885-3.0955-5.519-9.3658-5.4926l-.0184-4.3033,51.6323-.2179.0184,4.3021c-7.3747.4003-10.9382.9072-15.3585,2.0323-7.4906,1.9991-13.9879,6.206-22.9259,14.9719l-24.7334,23.7092,31.6448,40.6814Z"/>
    <path class="cls-1" d="m437.1617,207.5812l.2454-.0011c9.7122-.0413,14.9869-2.646,17.4172-9.4174,1.093-3.3238,1.6883-7.9975,1.6619-14.0211l-.2351-55.69c-.0424-9.9564-1.663-15.1142-5.238-17.5571-1.85-1.2215-4.3113-1.8259-7.5078-1.8121-1.7204.0069-3.5623.5069-5.5259,1.3752l-1.249-4.543,39.0367-13.5658.3888,91.7092c.0516,12.17,1.9188,17.8175,6.8494,20.624,2.4647,1.4646,6.0328,2.3111,10.8293,2.6586l.0195,4.5487-56.673.2409-.0195-4.5487Zm27.8175-165.8372c7.2543-.0298,13.0566,5.8459,13.0876,13.099.0298,7.0066-5.7232,12.81-12.9775,12.8398-7.0066.0298-12.9316-5.7232-12.9614-12.7297-.031-7.2531,5.8447-13.1793,12.8513-13.2091Z"/>
    <g>
      <path d="m595.5887,126.9041c-6.0432-4.645-17.5067-11.8499-34.2678-21.491-9.3658-5.4924-15.5282-9.2773-18.3657-11.4783-10.2329-6.9644-15.4296-14.8103-15.4663-23.4158-.0195-4.6714,1.3144-8.9792,4.0027-12.9246,5.3757-7.7681,14.9445-12.6025,26.1304-12.6506,7.4986-.031,14.5154,2.0291,21.2938,6.0569,13.3135,8.3037,22.966,23.5063,25.0076,41.0771l4.426-.0183-.242-57.1638-4.426.0183c-2.0645,6.0327-5.4926,9.1204-10.0413,9.1399-2.2124.009-5.0442-.5942-8.3691-1.9316-15.8849-6.2024-21.0529-7.2876-31.0105-7.2451-9.0963.0391-17.3243,2.0405-24.808,5.8828-14.8423,7.9309-24.1221,22.6001-24.0522,39.1973.0482,11.3096,4.27,21.0034,10.6928,28.4756,5.9307,6.8599,15.1783,13.2126,35.0167,24.4387,10.9692,6.2234,19.5975,11.5955,25.8873,16.3633,12.3351,9.5366,17.4114,18.1213,17.4562,28.8164.0229,5.2861-1.3098,10.0872-4.1198,14.1553-5.4961,8.2603-16.1716,13.1003-29.5712,13.1565-17.0869.0723-33.2344-9.6938-41.6609-25.2715-4.3342-7.7256-5.3309-10.6719-7.8392-22.5862l-4.7953.0193.2477,58.3945,4.7953-.0205c1.8202-5.2942,4.6359-8.3794,8.1971-9.1318l1.238-.1509c.5662-.0691,1.1353-.1125,1.7049-.0818,1.9269.1045,4.2261.5776,6.8976,1.4197,7.6328,2.427,13.0486,4.1255,16.3712,4.9719,7.0157,2.0598,11.0747,2.5347,18.9426,2.5015,10.0803-.0425,19.2913-2.1724,27.634-6.3872,16.5605-8.4299,26.5765-23.7173,26.502-41.4202-.07-16.3491-8.485-29.3452-23.4088-40.7158Z"/>
      <path d="m844.8464,121.4048c-10.1583-18.0298-28.7683-29.0149-48.929-28.929-10.5723.0447-20.5173,3.0371-29.7134,8.8542-18.6364,11.8811-30.3488,33.199-30.2524,55.8186.0178,4.1523.4495,8.1846,1.2739,12.1006-14.279,19.9036-27.5007,27.6499-43.4222,27.717-28.5194.1204-45.5868-23.9031-45.7107-52.9155-.0998-23.48,8.1707-44.5374,32.7573-44.6418,10.9417-.0459,18.8222,2.9946,18.8566,10.9854.0069,1.8442-.5987,3.936-.3406,6.7622.8958,8.6021,6.8139,12.5107,12.7148,12.4854,7.1304-.0298,12.0278-4.8457,11.9933-13.0818-.0665-15.613-21.6207-25.1106-38.9541-25.0374-33.8068.1433-57.3084,24.3389-57.1455,62.9399.1456,34.2998,20.6641,60.3979,53.1187,60.2603,21.7493-.0923,41.0695-12.1697,57.5706-39.9927,1.2526,3.9688,2.929,7.811,5.0343,11.5227,10.1572,18.1501,28.7695,29.5046,48.4392,29.4209,15.3654-.0642,31.0714-7.385,42.3295-19.6033,11.2594-11.9727,18.071-29.0894,18.0021-45.4399-.0447-10.4497-2.545-20.2742-7.6224-29.2258Zm-19.0344,63.27c-5.2266,14.0359-15.1497,22.0691-27.9333,22.1243-7.2532.0298-13.9042-2.5234-19.8269-7.7842-11.8466-10.3994-19.305-29.9153-19.399-51.9202-.0378-9.0974,1.28-17.0938,3.833-23.989,5.105-13.7908,14.9066-21.7,27.6925-21.7549,7.3759-.031,14.0246,2.5232,20.0688,7.5376,11.967,10.1536,19.3016,29.1765,19.3968,51.6733.039,9.0974-1.28,17.0938-3.8318,24.113Z"/>
      <path d="m925.942,92.4964c-2.342-1.3418-4.926-1.9463-7.7532-1.9336-11.3098.0483-31.3718,23.7368-31.3718,23.7368l-.078-18.3176-4.8159-5.2654-34.9755,14.7781,1.6172,4.2964c3.3135-1.3672,6.0145-2.1162,8.3496-2.1265,2.8283-.0115,4.7999.9646,6.159,2.802,2.5978,3.7998,3.1116,9.0847,3.1506,18.3037l.2283,53.7231c.0264,6.3916-.4439,11.1882-1.4142,14.2666-2.0633,6.4009-6.9698,9.0044-16.9275,9.1685l-.7374.0034.0195,4.5488,61.9603-.2627-.0195-4.5488-3.8112.0161c-5.0407-.1011-8.7315-.9463-11.319-2.2881-5.0533-2.8054-7.0444-8.5757-7.0983-21.2378l-.2432-57.4102c4.5109-8.7478,9.7706-15.0398,15.0477-17.1523,1.5953-.6216,3.0703-.9956,4.4225-1.0012,3.0726-.0139,5.4146,1.4519,7.0261,4.5188,1.8591,3.5566,5.1864,5.3872,8.9976,5.3699,6.2702-.0264,11.78-4.7207,11.7514-11.6057-.0207-4.917-3.2366-9.5745-8.165-12.3823Z"/>
      <path d="m1038.6652,162.2835c-14.293,21.5735-27.6501,31.4646-45.4756,31.5403-25.4479.1079-44.7324-24.8882-44.8493-52.5498l-.0172-4.0566,79.0472-.3347c-.039-9.2202-1.9188-17.4482-5.636-24.5637-7.4366-14.1062-21.6092-22.1599-38.9427-22.0864-10.2042.0437-19.1674,2.6633-26.8896,7.8599-15.6911,10.5161-24.8275,30.4692-24.7231,55.0569.1342,31.4717,20.4037,57.2017,50.155,57.0757,25.0787-.1055,43.7001-15.3069,59.7984-45.9858l-2.467-1.9556Zm-89.7652-33.9204c.7145-5.4124,2.0461-10.2109,4.4868-14.5247,4.8779-9.2407,12.9694-14.4385,22.6816-14.4797,13.5234-.0574,24.5212,13.0508,24.5579,21.9016.0195,4.5486-2.9166,8.002-9.6777,8.0308l-42.1689.1743.1204-1.1023Z"/>
    </g>
  </g>
  <g>
    <path d="m508.945,270.7781c0-7.1582,1.7842-12.6992,5.353-16.624,3.5684-3.9248,8.0425-5.8867,13.4219-5.8867,5.3579,0,9.4971,1.4756,12.417,4.4268s4.5054,6.5615,4.7568,10.832v.3135h-5.0234l-.0317-.3135c-.1675-2.9307-1.2192-5.4785-3.1553-7.6455-1.936-2.166-4.9243-3.249-8.9634-3.249-3.9771,0-7.2524,1.5439-9.8267,4.6309-2.5747,3.0869-3.8618,7.5928-3.8618,13.5156v2.5742c0,5.7773,1.2817,10.2461,3.8457,13.4062,2.564,3.1611,5.8447,4.7412,9.8428,4.7412,3.9351,0,6.8647-1.0879,8.791-3.2656,1.9253-2.1768,3.0347-4.7197,3.3276-7.6289l.0317-.3145h5.0234l-.0317.3145c-.4189,4.249-2.0405,7.8545-4.8662,10.8154-2.8257,2.9619-6.918,4.4424-12.2759,4.4424-5.3794,0-9.8535-1.9512-13.4219-5.8545-3.5688-3.9033-5.353-9.4551-5.353-16.6562v-2.5742Z"/>
    <path d="m550.1994,277.9051c0-4.9814,1.4077-9.0527,4.2231-12.2129,2.8145-3.1602,6.5874-4.7412,11.3179-4.7412,4.7095,0,8.4717,1.5811,11.2871,4.7412,2.8149,3.1602,4.2227,7.2314,4.2227,12.2129v1.0049c0,4.9814-1.4077,9.0527-4.2227,12.2129-2.8154,3.1602-6.5776,4.7402-11.2871,4.7402-4.7305,0-8.5034-1.5801-11.3179-4.7402-2.8154-3.1602-4.2231-7.2314-4.2231-12.2129v-1.0049Zm4.9922,1.0049c0,3.6416.8838,6.6982,2.6528,9.167,1.7686,2.4707,4.4004,3.7051,7.896,3.7051,3.4741,0,6.1011-1.2344,7.8804-3.7051,1.7788-2.4688,2.6689-5.5254,2.6689-9.167v-1.0049c0-3.6416-.8901-6.6973-2.6689-9.168-1.7793-2.4688-4.4062-3.7041-7.8804-3.7041-3.4956,0-6.1274,1.2354-7.896,3.7041-1.769,2.4707-2.6528,5.5264-2.6528,9.168v1.0049Z"/>
    <path d="m588.6594,261.8934h4.395l.2207,4.5518h.125c1.2559-1.6318,2.7891-2.9033,4.5996-3.8145,1.8105-.9102,3.8252-1.3652,6.0439-1.3652,3.3281,0,5.9756.9365,7.9434,2.8096,1.9668,1.874,2.9512,4.9971,2.9512,9.3721v21.4746h-4.8984v-21.5371c0-2.8262-.6484-4.8564-1.9463-6.0908-1.2979-1.2354-3.1396-1.8525-5.5254-1.8525-2.0303,0-3.8252.5439-5.3848,1.6318-1.5596,1.0889-2.7783,2.4707-3.6572,4.1445v23.7041h-4.8667v-33.0283Z"/>
    <path d="m619.365,261.8934h19.0264v3.8613h-19.0264v-3.8613Zm6.373,2.3232v-10.4863h4.8984v32.9971c0,1.7373.3242,2.9824.9727,3.7363.6484.7529,1.6748,1.1299,3.0771,1.1299.6064,0,1.1982-.0625,1.7734-.1885.5762-.125,1.1562-.293,1.7432-.502v4.0811c-.5234.2305-1.2041.4346-2.041.6123-.8379.1777-1.7578.2666-2.7627.2666-2.3447,0-4.207-.7324-5.5889-2.1973-1.3809-1.4648-2.0723-3.7773-2.0723-6.9385v-22.5107Z"/>
    <path d="m642.6296,277.9051c0-4.9814,1.3604-9.0527,4.0811-12.2129s6.3105-4.7412,10.7686-4.7412,7.8906,1.4551,10.2979,4.3643,3.6113,6.918,3.6113,12.0244v2.041h-25.8711v-3.9561h20.9414v-.4395c0-3.0137-.7373-5.4258-2.2129-7.2363s-3.6895-2.7158-6.6406-2.7158c-3.3076,0-5.8037,1.2295-7.4883,3.6885-1.6846,2.46-2.5273,5.5215-2.5273,9.1836v1.0049c0,3.6631.8789,6.7236,2.6377,9.1836,1.7578,2.459,4.5098,3.6885,8.2568,3.6885,2.1768,0,4.0391-.4443,5.5889-1.334,1.5488-.8896,2.8359-1.9727,3.8613-3.25l3.1709,2.6064c-1.0469,1.5068-2.6426,2.8936-4.7881,4.1592-2.1455,1.2666-4.7559,1.8994-7.833,1.8994-5.1074,0-9.0264-1.5801-11.7578-4.7402s-4.0967-7.2314-4.0967-12.2129v-1.0049Z"/>
    <path d="m681.0261,285.1893v.1562c0,2.1562.7793,3.7676,2.3389,4.835,1.5596,1.0684,3.6055,1.6016,6.1377,1.6016,2.5537,0,4.5576-.5225,6.0127-1.5693,1.4541-1.0469,2.1816-2.3965,2.1816-4.0508,0-1.6533-.5859-2.8926-1.7578-3.7197s-3.5898-1.6592-7.252-2.4961c-3.6426-.8369-6.4736-2.0146-8.4932-3.5322s-3.0293-3.5947-3.0293-6.2324c0-2.6572,1.1094-4.8604,3.3281-6.6084,2.2178-1.7471,5.1797-2.6221,8.8848-2.6221,3.7256,0,6.7188.9111,8.9795,2.7314,2.2598,1.8213,3.3906,4.207,3.3906,7.1582v.1572h-4.8662v-.1885c0-1.7578-.623-3.1602-1.8682-4.207-1.2461-1.0459-3.124-1.5693-5.6357-1.5693s-4.3691.4502-5.5732,1.3496c-1.2031.9004-1.8047,2.0625-1.8047,3.4854,0,1.4238.6279,2.5586,1.8838,3.4062s3.7041,1.6904,7.3467,2.5273c3.6621.8369,6.4668,2.0098,8.4141,3.5166,1.9463,1.5068,2.9199,3.6943,2.9199,6.5615,0,2.8887-1.0889,5.2744-3.2656,7.1582s-5.4424,2.8252-9.7959,2.8252c-4.332,0-7.6396-.957-9.9209-2.8721s-3.4219-4.4629-3.4219-7.6455v-.1562h4.8662Z"/>
    <path d="m705.0749,261.8934h19.0264v3.8613h-19.0264v-3.8613Zm6.373,2.3232v-10.4863h4.8984v32.9971c0,1.7373.3242,2.9824.9727,3.7363.6484.7529,1.6748,1.1299,3.0771,1.1299.6064,0,1.1982-.0625,1.7734-.1885.5762-.125,1.1562-.293,1.7432-.502v4.0811c-.5234.2305-1.2041.4346-2.041.6123-.8379.1777-1.7578.2666-2.7627.2666-2.3447,0-4.207-.7324-5.5889-2.1973-1.3809-1.4648-2.0723-3.7773-2.0723-6.9385v-22.5107Z"/>
    <path d="m746.7058,249.2088h13.124c5.8809,0,10.7471,1.9268,14.5986,5.7773,3.8516,3.8516,5.7773,9.1152,5.7773,15.792v2.5742c0,6.6777-1.9258,11.9414-5.7773,15.793-3.8516,3.8506-8.7178,5.7764-14.5986,5.7764h-13.124v-45.7129Zm13.124,41.4746c4.667,0,8.3828-1.5117,11.1455-4.5371,2.7627-3.0244,4.1445-7.2881,4.1445-12.7939v-2.5742c0-5.5049-1.3818-9.7686-4.1445-12.7939-2.7627-3.0244-6.4785-4.5361-11.1455-4.5361h-8.1006v37.2354h8.1006Z"/>
    <path d="m790.6452,277.6697c2.6475-1.8311,6.0117-2.7471,10.0938-2.7471h8.0996v-2.6064c0-2.1973-.5596-3.9756-1.6797-5.3369-1.1201-1.3604-3.0713-2.041-5.8555-2.041s-4.7773.5713-5.9805,1.7109c-1.2041,1.1416-1.8057,2.5068-1.8057,4.0977v.1572h-4.8037v-.1572c0-2.6787,1.1514-4.9814,3.4541-6.9072,2.3018-1.9258,5.4004-2.8887,9.293-2.8887s6.9121.9531,9.0576,2.8574c2.1455,1.9053,3.2188,4.7402,3.2188,8.5078v15.0703c0,1.3613.1094,2.6426.3291,3.8457.2197,1.2041.5283,2.2666.9268,3.1875v.502h-4.6787c-.335-.5439-.6279-1.2559-.8789-2.1348s-.4082-1.7588-.4707-2.6377c-.8164,1.3818-2.1406,2.627-3.9717,3.7363-1.832,1.1094-4.1807,1.6641-7.0488,1.6641-3.1602,0-5.8291-.8525-8.0059-2.5586s-3.2646-4.2334-3.2646-7.582c0-3.3281,1.3232-5.9072,3.9717-7.7393Zm2.7314,12.2441c1.2236,1.0986,3.124,1.6484,5.6982,1.6484,2.5322,0,4.793-.8369,6.7812-2.5117,1.9883-1.6738,2.9824-3.4639,2.9824-5.3682v-5.1807h-7.4404c-3.2236,0-5.6729.5918-7.3467,1.7734-1.6748,1.1826-2.5117,2.8105-2.5117,4.8828s.6123,3.6572,1.8369,4.7559Z"/>
    <path d="m825.7292,285.1893v.1562c0,2.1562.7793,3.7676,2.3389,4.835,1.5596,1.0684,3.6055,1.6016,6.1377,1.6016,2.5537,0,4.5576-.5225,6.0127-1.5693,1.4541-1.0469,2.1816-2.3965,2.1816-4.0508,0-1.6533-.5859-2.8926-1.7578-3.7197s-3.5898-1.6592-7.252-2.4961c-3.6426-.8369-6.4736-2.0146-8.4932-3.5322s-3.0293-3.5947-3.0293-6.2324c0-2.6572,1.1094-4.8604,3.3281-6.6084,2.2178-1.7471,5.1797-2.6221,8.8848-2.6221,3.7256,0,6.7188.9111,8.9795,2.7314,2.2598,1.8213,3.3906,4.207,3.3906,7.1582v.1572h-4.8662v-.1885c0-1.7578-.623-3.1602-1.8682-4.207-1.2461-1.0459-3.124-1.5693-5.6357-1.5693s-4.3691.4502-5.5732,1.3496c-1.2031.9004-1.8047,2.0625-1.8047,3.4854,0,1.4238.6279,2.5586,1.8838,3.4062s3.7041,1.6904,7.3467,2.5273c3.6621.8369,6.4668,2.0098,8.4141,3.5166,1.9463,1.5068,2.9199,3.6943,2.9199,6.5615,0,2.8887-1.0889,5.2744-3.2656,7.1582s-5.4424,2.8252-9.7959,2.8252c-4.332,0-7.6396-.957-9.9209-2.8721s-3.4219-4.4629-3.4219-7.6455v-.1562h4.8662Z"/>
    <path d="m854.5202,246.6981h4.8662v19.6221c1.2559-1.5703,2.7939-2.8047,4.6152-3.7051,1.8203-.8994,3.8506-1.3496,6.0908-1.3496,3.1807,0,5.7656.9365,7.7549,2.8096,1.9883,1.874,2.9824,4.9971,2.9824,9.3721v21.4746h-4.8984v-21.5371c0-2.8262-.6592-4.8564-1.9775-6.0908-1.3184-1.2354-3.1602-1.8525-5.5254-1.8525-2.0303,0-3.8203.5391-5.3691,1.6162-1.5488,1.0791-2.7734,2.4648-3.6729,4.1602v23.7041h-4.8662v-48.2236Z"/>
    <path d="m889.9665,246.6981h4.8662v19.2451c1.0674-1.4023,2.4639-2.5322,4.1914-3.3906,1.7266-.8584,3.8145-1.2871,6.2627-1.2871,4.249,0,7.6191,1.5693,10.1104,4.709,2.4902,3.1396,3.7354,7.1172,3.7354,11.9307v1.0049c0,4.8145-1.2451,8.791-3.7354,11.9307-2.4912,3.1396-5.8613,4.709-10.1104,4.709-2.4482,0-4.5938-.4971-6.4355-1.4912s-3.2236-2.1924-4.1445-3.5947h-.125l-.2207,4.458h-4.3945v-48.2236Zm8.335,42.9961c1.6016,1.1826,3.5527,1.7744,5.8555,1.7744,3.4746,0,6.0068-1.1934,7.5977-3.5791,1.5908-2.3867,2.3867-5.3799,2.3867-8.9795v-1.0049c0-3.5996-.7959-6.5928-2.3867-8.9795-1.5908-2.3857-4.123-3.5791-7.5977-3.5791-2.3027,0-4.2539.5918-5.8555,1.7744-1.6006,1.1826-2.7578,2.5381-3.4688,4.0654v14.4424c.7109,1.5283,1.8682,2.8828,3.4688,4.0654Z"/>
    <path d="m924.4704,277.9051c0-4.9814,1.4072-9.0527,4.2227-12.2129,2.8145-3.1602,6.5879-4.7412,11.3184-4.7412,4.709,0,8.4707,1.5811,11.2861,4.7412s4.2227,7.2314,4.2227,12.2129v1.0049c0,4.9814-1.4072,9.0527-4.2227,12.2129s-6.5771,4.7402-11.2861,4.7402c-4.7305,0-8.5039-1.5801-11.3184-4.7402-2.8154-3.1602-4.2227-7.2314-4.2227-12.2129v-1.0049Zm4.9912,1.0049c0,3.6416.8848,6.6982,2.6533,9.167,1.7686,2.4707,4.4004,3.7051,7.8965,3.7051,3.4736,0,6.1006-1.2344,7.8799-3.7051,1.7793-2.4688,2.6689-5.5254,2.6689-9.167v-1.0049c0-3.6416-.8896-6.6973-2.6689-9.168-1.7793-2.4688-4.4062-3.7041-7.8799-3.7041-3.4961,0-6.1279,1.2354-7.8965,3.7041-1.7686,2.4707-2.6533,5.5264-2.6533,9.168v1.0049Z"/>
    <path d="m965.0495,277.6697c2.6475-1.8311,6.0117-2.7471,10.0938-2.7471h8.0996v-2.6064c0-2.1973-.5596-3.9756-1.6797-5.3369-1.1201-1.3604-3.0713-2.041-5.8555-2.041s-4.7773.5713-5.9805,1.7109c-1.2041,1.1416-1.8057,2.5068-1.8057,4.0977v.1572h-4.8037v-.1572c0-2.6787,1.1514-4.9814,3.4541-6.9072,2.3018-1.9258,5.4004-2.8887,9.293-2.8887s6.9121.9531,9.0576,2.8574c2.1455,1.9053,3.2188,4.7402,3.2188,8.5078v15.0703c0,1.3613.1094,2.6426.3291,3.8457.2197,1.2041.5283,2.2666.9268,3.1875v.502h-4.6787c-.335-.5439-.6279-1.2559-.8789-2.1348s-.4082-1.7588-.4707-2.6377c-.8164,1.3818-2.1406,2.627-3.9717,3.7363-1.832,1.1094-4.1807,1.6641-7.0488,1.6641-3.1602,0-5.8291-.8525-8.0059-2.5586s-3.2646-4.2334-3.2646-7.582c0-3.3281,1.3232-5.9072,3.9717-7.7393Zm2.7314,12.2441c1.2236,1.0986,3.124,1.6484,5.6982,1.6484,2.5322,0,4.793-.8369,6.7812-2.5117,1.9883-1.6738,2.9824-3.4639,2.9824-5.3682v-5.1807h-7.4404c-3.2236,0-5.6729.5918-7.3467,1.7734-1.6748,1.1826-2.5117,2.8105-2.5117,4.8828s.6123,3.6572,1.8369,4.7559Z"/>
    <path d="m997.4968,261.8934h4.3945l.2207,4.458h.125c.9209-1.4443,2.1191-2.7051,3.5947-3.7832s3.25-1.6172,5.3223-1.6172c.4805,0,.9883.0527,1.5225.1572.5332.1055.915.1992,1.1455.2822v4.5527c-.4395-.083-.9053-.1514-1.3965-.2041-.4922-.0518-1.0205-.0781-1.5859-.0781-2.0518,0-3.7939.5332-5.2275,1.6006s-2.5166,2.3867-3.249,3.9561v23.7041h-4.8662v-33.0283Z"/>
    <path d="m1016.8366,277.9051c0-4.8135,1.25-8.791,3.752-11.9307,2.5-3.1396,5.876-4.709,10.125-4.709,2.4277,0,4.5049.4287,6.2314,1.2871,1.7275.8584,3.1133,1.9883,4.1602,3.3906v-19.2451h4.8975v48.2236h-4.4268l-.1875-4.458h-.126c-.9209,1.4023-2.3027,2.6006-4.1445,3.5947s-3.9766,1.4912-6.4043,1.4912c-4.249,0-7.625-1.5693-10.125-4.709-2.502-3.1396-3.752-7.1162-3.752-11.9307v-1.0049Zm7.4092,9.9844c1.6113,2.3857,4.1338,3.5791,7.5664,3.5791,2.2812,0,4.2227-.5918,5.8242-1.7744,1.6006-1.1826,2.7568-2.5371,3.4688-4.0654v-14.4424c-.7119-1.5273-1.8682-2.8828-3.4688-4.0654-1.6016-1.1826-3.543-1.7744-5.8242-1.7744-3.4326,0-5.9551,1.1934-7.5664,3.5791-1.6123,2.3867-2.418,5.3799-2.418,8.9795v1.0049c0,3.5996.8057,6.5928,2.418,8.9795Z"/>
  </g>
</svg>